<svg width="145" height="51" viewBox="0 0 145 51" fill="none" xmlns="http://www.w3.org/2000/svg">
<g filter="url(#filter0_d_1887_25062)">
<rect x="4" width="137" height="43" rx="21.5" fill="#FFBCE1" shape-rendering="crispEdges"/>
<path d="M27.02 28.5L35.62 14.5H37.46L40.18 28.5H38.62L37.8 24.1H31.36L28.7 28.5H27.02ZM32.16 22.78H37.56L36.28 15.96L32.16 22.78ZM39.6403 32.58L42.6403 18.48H44.0803L43.9203 19.2C44.787 18.6267 45.707 18.34 46.6803 18.34C47.5336 18.34 48.287 18.54 48.9403 18.94C49.607 19.34 50.1336 19.8867 50.5203 20.58C50.907 21.2733 51.1003 22.06 51.1003 22.94C51.1003 23.7267 50.9536 24.4667 50.6603 25.16C50.3803 25.8533 49.987 26.4667 49.4803 27C48.987 27.52 48.407 27.9333 47.7403 28.24C47.0736 28.5333 46.3603 28.68 45.6003 28.68C44.9203 28.68 44.287 28.5533 43.7003 28.3C43.127 28.0467 42.6336 27.6867 42.2203 27.22L41.0803 32.58H39.6403ZM45.5603 27.36C46.3336 27.36 47.027 27.1667 47.6403 26.78C48.267 26.3933 48.7603 25.8733 49.1203 25.22C49.4936 24.5667 49.6803 23.8467 49.6803 23.06C49.6803 22.3933 49.5403 21.8067 49.2603 21.3C48.9803 20.78 48.587 20.3733 48.0803 20.08C47.587 19.7867 47.0203 19.64 46.3803 19.64C45.8603 19.64 45.3603 19.7333 44.8803 19.92C44.4136 20.0933 43.9936 20.3533 43.6203 20.7L42.5403 25.74C42.807 26.2333 43.2136 26.6267 43.7603 26.92C44.307 27.2133 44.907 27.36 45.5603 27.36ZM50.2028 32.58L53.2028 18.48H54.6428L54.4828 19.2C55.3495 18.6267 56.2695 18.34 57.2428 18.34C58.0961 18.34 58.8495 18.54 59.5028 18.94C60.1695 19.34 60.6961 19.8867 61.0828 20.58C61.4695 21.2733 61.6628 22.06 61.6628 22.94C61.6628 23.7267 61.5161 24.4667 61.2228 25.16C60.9428 25.8533 60.5495 26.4667 60.0428 27C59.5495 27.52 58.9695 27.9333 58.3028 28.24C57.6361 28.5333 56.9228 28.68 56.1628 28.68C55.4828 28.68 54.8495 28.5533 54.2628 28.3C53.6895 28.0467 53.1961 27.6867 52.7828 27.22L51.6428 32.58H50.2028ZM56.1228 27.36C56.8961 27.36 57.5895 27.1667 58.2028 26.78C58.8295 26.3933 59.3228 25.8733 59.6828 25.22C60.0561 24.5667 60.2428 23.8467 60.2428 23.06C60.2428 22.3933 60.1028 21.8067 59.8228 21.3C59.5428 20.78 59.1495 20.3733 58.6428 20.08C58.1495 19.7867 57.5828 19.64 56.9428 19.64C56.4228 19.64 55.9228 19.7333 55.4428 19.92C54.9761 20.0933 54.5561 20.3533 54.1828 20.7L53.1028 25.74C53.3695 26.2333 53.7761 26.6267 54.3228 26.92C54.8695 27.2133 55.4695 27.36 56.1228 27.36ZM61.6453 28.5L64.6253 14.5L66.1253 14.16L63.0853 28.5H61.6453ZM64.2902 32.78C64.1035 32.78 63.9168 32.7667 63.7302 32.74C63.5435 32.7133 63.3635 32.6733 63.1902 32.62L63.4702 31.3C63.5768 31.34 63.7102 31.3667 63.8702 31.38C64.0168 31.4067 64.1702 31.42 64.3302 31.42C64.7568 31.42 65.1502 31.3 65.5102 31.06C65.8702 30.82 66.2102 30.4533 66.5302 29.96L67.4902 28.48L65.5702 18.48H67.1102L68.6102 26.78L73.7702 18.48H75.3902L67.9702 30.26C67.4102 31.1533 66.8435 31.7933 66.2702 32.18C65.6968 32.58 65.0368 32.78 64.2902 32.78ZM77.1666 28.5L80.1466 14.5H81.6466L80.3066 20.76H88.2866L89.6266 14.5H91.1466L88.1666 28.5H86.6466L88.0066 22.14H80.0266L78.6666 28.5H77.1666ZM95.35 28.68C94.4167 28.68 93.5833 28.48 92.85 28.08C92.1167 27.68 91.5433 27.1267 91.13 26.42C90.7167 25.7 90.51 24.8867 90.51 23.98C90.51 23.2067 90.6433 22.48 90.91 21.8C91.19 21.1067 91.57 20.5 92.05 19.98C92.5433 19.46 93.1033 19.0533 93.73 18.76C94.37 18.4667 95.05 18.32 95.77 18.32C96.5833 18.32 97.31 18.5267 97.95 18.94C98.59 19.3533 99.0967 19.9133 99.47 20.62C99.8433 21.3267 100.03 22.1333 100.03 23.04C100.03 23.1733 100.023 23.32 100.01 23.48C100.01 23.6267 99.9967 23.78 99.97 23.94H91.95C91.9633 24.6067 92.1233 25.2 92.43 25.72C92.7367 26.24 93.15 26.6533 93.67 26.96C94.19 27.2533 94.77 27.4 95.41 27.4C95.9033 27.4 96.3833 27.3267 96.85 27.18C97.3167 27.0333 97.7367 26.8333 98.11 26.58L98.87 27.6C98.3233 27.9733 97.7633 28.2467 97.19 28.42C96.6167 28.5933 96.0033 28.68 95.35 28.68ZM92.09 22.76H98.65C98.61 22.1467 98.4567 21.6067 98.19 21.14C97.9233 20.6733 97.57 20.3067 97.13 20.04C96.69 19.76 96.19 19.62 95.63 19.62C95.07 19.62 94.5433 19.76 94.05 20.04C93.57 20.3067 93.1567 20.68 92.81 21.16C92.4767 21.6267 92.2367 22.16 92.09 22.76ZM99.9452 28.5L102.085 18.48H103.505L103.245 19.74C103.618 19.2733 104.052 18.9133 104.545 18.66C105.038 18.3933 105.565 18.26 106.125 18.26C106.538 18.26 106.892 18.32 107.185 18.44L106.905 19.8C106.772 19.7333 106.598 19.68 106.385 19.64C106.172 19.6 105.965 19.58 105.765 19.58C104.605 19.58 103.638 20.22 102.865 21.5L101.385 28.5H99.9452ZM110.948 28.68C110.014 28.68 109.181 28.48 108.448 28.08C107.714 27.68 107.141 27.1267 106.728 26.42C106.314 25.7 106.108 24.8867 106.108 23.98C106.108 23.2067 106.241 22.48 106.508 21.8C106.788 21.1067 107.168 20.5 107.648 19.98C108.141 19.46 108.701 19.0533 109.328 18.76C109.968 18.4667 110.648 18.32 111.368 18.32C112.181 18.32 112.908 18.5267 113.548 18.94C114.188 19.3533 114.694 19.9133 115.068 20.62C115.441 21.3267 115.628 22.1333 115.628 23.04C115.628 23.1733 115.621 23.32 115.608 23.48C115.608 23.6267 115.594 23.78 115.568 23.94H107.548C107.561 24.6067 107.721 25.2 108.028 25.72C108.334 26.24 108.748 26.6533 109.268 26.96C109.788 27.2533 110.368 27.4 111.008 27.4C111.501 27.4 111.981 27.3267 112.448 27.18C112.914 27.0333 113.334 26.8333 113.708 26.58L114.468 27.6C113.921 27.9733 113.361 28.2467 112.788 28.42C112.214 28.5933 111.601 28.68 110.948 28.68ZM107.688 22.76H114.248C114.208 22.1467 114.054 21.6067 113.788 21.14C113.521 20.6733 113.168 20.3067 112.728 20.04C112.288 19.76 111.788 19.62 111.228 19.62C110.668 19.62 110.141 19.76 109.648 20.04C109.168 20.3067 108.754 20.68 108.408 21.16C108.074 21.6267 107.834 22.16 107.688 22.76Z" fill="#2A2A2A"/>
</g>
<defs>
<filter id="filter0_d_1887_25062" x="0" y="0" width="145" height="51" filterUnits="userSpaceOnUse" color-interpolation-filters="sRGB">
<feFlood flood-opacity="0" result="BackgroundImageFix"/>
<feColorMatrix in="SourceAlpha" type="matrix" values="0 0 0 0 0 0 0 0 0 0 0 0 0 0 0 0 0 0 127 0" result="hardAlpha"/>
<feOffset dy="4"/>
<feGaussianBlur stdDeviation="2"/>
<feComposite in2="hardAlpha" operator="out"/>
<feColorMatrix type="matrix" values="0 0 0 0 0 0 0 0 0 0 0 0 0 0 0 0 0 0 0.25 0"/>
<feBlend mode="normal" in2="BackgroundImageFix" result="effect1_dropShadow_1887_25062"/>
<feBlend mode="normal" in="SourceGraphic" in2="effect1_dropShadow_1887_25062" result="shape"/>
</filter>
</defs>
</svg>
