<svg width="374" height="114" viewBox="0 0 374 114" fill="none" xmlns="http://www.w3.org/2000/svg">
<g filter="url(#filter0_di_1887_25066)">
<mask id="path-1-inside-1_1887_25066" fill="white">
<path d="M32 49C32 35.1929 43.1929 24 57 24H317C330.807 24 342 35.1929 342 49V49C342 62.8071 330.807 74 317 74H57C43.1929 74 32 62.8071 32 49V49Z"/>
</mask>
<path d="M32 49C32 35.1929 43.1929 24 57 24H317C330.807 24 342 35.1929 342 49V49C342 62.8071 330.807 74 317 74H57C43.1929 74 32 62.8071 32 49V49Z" fill="white" shape-rendering="crispEdges"/>
<path d="M32 49M342 49M342 49M32 49M57 24V25H317V24V23H57V24ZM342 49M317 74V73H57V74V75H317V74ZM32 49M57 74V73C43.7452 73 33 62.2548 33 49H32H31C31 63.3594 42.6406 75 57 75V74ZM342 49H341C341 62.2548 330.255 73 317 73V74V75C331.359 75 343 63.3594 343 49H342ZM317 24V25C330.255 25 341 35.7452 341 49H342H343C343 34.6406 331.359 23 317 23V24ZM57 24V23C42.6406 23 31 34.6406 31 49H32H33C33 35.7452 43.7452 25 57 25V24Z" fill="#1F2A16" fill-opacity="0.1" mask="url(#path-1-inside-1_1887_25066)"/>
<path d="M39 49C39 39.0589 47.0589 31 57 31H91C100.941 31 109 39.0589 109 49C109 58.9411 100.941 67 91 67H57C47.0589 67 39 58.9411 39 49Z" fill="#D2E7FF"/>
<path d="M39 49C39 39.0589 47.0589 31 57 31H91C100.941 31 109 39.0589 109 49C109 58.9411 100.941 67 91 67H57C47.0589 67 39 58.9411 39 49Z" fill="#D2E7FF"/>
<path d="M55.021 53.625L58.9225 44.175H60.367L64.255 53.625H62.932L61.7845 50.7495H57.4375L56.2765 53.625H55.021ZM57.8425 49.7235H61.3795L59.611 45.309L57.8425 49.7235ZM65.1116 53.625V44.175L66.2726 43.932V47.496C66.8486 46.965 67.5596 46.6995 68.4056 46.6995C69.0536 46.6995 69.6341 46.857 70.1471 47.172C70.6691 47.487 71.0831 47.91 71.3891 48.441C71.6951 48.963 71.8481 49.5525 71.8481 50.2095C71.8481 50.8755 71.6951 51.474 71.3891 52.005C71.0831 52.527 70.6691 52.9455 70.1471 53.2605C69.6251 53.5755 69.0401 53.733 68.3921 53.733C68.0051 53.733 67.6271 53.67 67.2581 53.544C66.8981 53.409 66.5651 53.2245 66.2591 52.9905V53.625H65.1116ZM68.2706 52.7205C68.7386 52.7205 69.1526 52.6125 69.5126 52.3965C69.8816 52.1715 70.1696 51.8745 70.3766 51.5055C70.5926 51.1275 70.7006 50.7 70.7006 50.223C70.7006 49.746 70.5926 49.3185 70.3766 48.9405C70.1696 48.5625 69.8816 48.2655 69.5126 48.0495C69.1526 47.8245 68.7386 47.712 68.2706 47.712C67.8656 47.712 67.4876 47.793 67.1366 47.955C66.7946 48.108 66.5066 48.324 66.2726 48.603V51.843C66.5066 52.113 66.7991 52.329 67.1501 52.491C67.5011 52.644 67.8746 52.7205 68.2706 52.7205ZM76.3794 53.76C75.7314 53.76 75.1374 53.6025 74.5974 53.2875C74.0664 52.9725 73.6434 52.5495 73.3284 52.0185C73.0224 51.4875 72.8694 50.889 72.8694 50.223C72.8694 49.566 73.0224 48.972 73.3284 48.441C73.6434 47.901 74.0664 47.4735 74.5974 47.1585C75.1374 46.8435 75.7314 46.686 76.3794 46.686C77.0364 46.686 77.6304 46.8435 78.1614 47.1585C78.6924 47.4735 79.1154 47.901 79.4304 48.441C79.7454 48.972 79.9029 49.566 79.9029 50.223C79.9029 50.889 79.7454 51.4875 79.4304 52.0185C79.1154 52.5495 78.6924 52.9725 78.1614 53.2875C77.6304 53.6025 77.0364 53.76 76.3794 53.76ZM76.3794 52.734C76.8204 52.734 77.2209 52.6215 77.5809 52.3965C77.9409 52.1715 78.2244 51.87 78.4314 51.492C78.6474 51.114 78.7554 50.691 78.7554 50.223C78.7554 49.746 78.6474 49.323 78.4314 48.954C78.2244 48.576 77.9409 48.2745 77.5809 48.0495C77.2209 47.8245 76.8204 47.712 76.3794 47.712C75.9384 47.712 75.5379 47.8245 75.1779 48.0495C74.8269 48.2745 74.5434 48.576 74.3274 48.954C74.1204 49.323 74.0169 49.746 74.0169 50.223C74.0169 50.691 74.1204 51.114 74.3274 51.492C74.5434 51.87 74.8269 52.1715 75.1779 52.3965C75.5379 52.6215 75.9384 52.734 76.3794 52.734ZM83.8541 53.76C83.3411 53.76 82.8821 53.6475 82.4771 53.4225C82.0811 53.1975 81.7706 52.887 81.5456 52.491C81.3206 52.095 81.2081 51.6315 81.2081 51.1005V46.8075H82.3556V50.8845C82.3556 51.4605 82.5176 51.915 82.8416 52.248C83.1746 52.581 83.6156 52.7475 84.1646 52.7475C84.5516 52.7475 84.8981 52.662 85.2041 52.491C85.5101 52.32 85.7576 52.077 85.9466 51.762V46.8075H87.1076V53.625H85.9466V52.8825C85.4156 53.4675 84.7181 53.76 83.8541 53.76ZM91.5443 53.76C90.9233 53.76 90.4463 53.6115 90.1133 53.3145C89.7803 53.0175 89.6138 52.59 89.6138 52.032V47.793H88.1558V46.8075H89.6138V45.0795L90.7613 44.796V46.8075H92.7998V47.793H90.7613V51.7485C90.7613 52.1085 90.8378 52.365 90.9908 52.518C91.1528 52.671 91.4183 52.7475 91.7873 52.7475C91.9763 52.7475 92.1428 52.734 92.2868 52.707C92.4398 52.68 92.6018 52.635 92.7728 52.572V53.571C92.6018 53.634 92.4038 53.679 92.1788 53.706C91.9538 53.742 91.7423 53.76 91.5443 53.76Z" fill="#010101"/>
<path d="M131.05 52.5315H133.102C133.624 52.5315 134.105 52.4415 134.546 52.2615C134.996 52.0725 135.388 51.816 135.721 51.492C136.063 51.159 136.324 50.7765 136.504 50.3445C136.693 49.9035 136.787 49.422 136.787 48.9C136.787 48.387 136.693 47.91 136.504 47.469C136.324 47.028 136.063 46.6455 135.721 46.3215C135.388 45.9885 134.996 45.732 134.546 45.552C134.105 45.363 133.624 45.2685 133.102 45.2685H131.05V52.5315ZM129.835 53.625V44.175H133.061C133.772 44.175 134.429 44.292 135.032 44.526C135.635 44.76 136.162 45.093 136.612 45.525C137.062 45.948 137.408 46.4475 137.651 47.0235C137.903 47.5995 138.029 48.225 138.029 48.9C138.029 49.584 137.903 50.214 137.651 50.79C137.408 51.366 137.062 51.8655 136.612 52.2885C136.171 52.7115 135.644 53.04 135.032 53.274C134.429 53.508 133.772 53.625 133.061 53.625H129.835ZM141.443 53.7465C140.948 53.7465 140.512 53.661 140.134 53.49C139.756 53.31 139.459 53.067 139.243 52.761C139.036 52.455 138.932 52.095 138.932 51.681C138.932 51.042 139.175 50.538 139.661 50.169C140.156 49.791 140.822 49.602 141.659 49.602C142.37 49.602 143.018 49.746 143.603 50.034V49.2105C143.603 48.6975 143.455 48.3105 143.158 48.0495C142.861 47.7885 142.429 47.658 141.862 47.658C141.538 47.658 141.205 47.7075 140.863 47.8065C140.521 47.8965 140.143 48.045 139.729 48.252L139.297 47.361C139.801 47.127 140.269 46.956 140.701 46.848C141.133 46.731 141.565 46.6725 141.997 46.6725C142.87 46.6725 143.545 46.8795 144.022 47.2935C144.499 47.7075 144.737 48.3015 144.737 49.0755V53.625H143.603V52.9905C143.297 53.2425 142.964 53.4315 142.604 53.5575C142.244 53.6835 141.857 53.7465 141.443 53.7465ZM140.039 51.654C140.039 52.014 140.188 52.3065 140.485 52.5315C140.791 52.7475 141.187 52.8555 141.673 52.8555C142.06 52.8555 142.411 52.8015 142.726 52.6935C143.05 52.5765 143.342 52.392 143.603 52.14V50.9115C143.333 50.7405 143.045 50.619 142.739 50.547C142.442 50.466 142.105 50.4255 141.727 50.4255C141.214 50.4255 140.804 50.538 140.498 50.763C140.192 50.988 140.039 51.285 140.039 51.654ZM148.947 53.76C148.326 53.76 147.849 53.6115 147.516 53.3145C147.183 53.0175 147.016 52.59 147.016 52.032V47.793H145.558V46.8075H147.016V45.0795L148.164 44.796V46.8075H150.202V47.793H148.164V51.7485C148.164 52.1085 148.24 52.365 148.393 52.518C148.555 52.671 148.821 52.7475 149.19 52.7475C149.379 52.7475 149.545 52.734 149.689 52.707C149.842 52.68 150.004 52.635 150.175 52.572V53.571C150.004 53.634 149.806 53.679 149.581 53.706C149.356 53.742 149.145 53.76 148.947 53.76ZM154.336 53.7465C153.679 53.7465 153.08 53.5935 152.54 53.2875C152.009 52.9725 151.586 52.5495 151.271 52.0185C150.956 51.4785 150.799 50.8755 150.799 50.2095C150.799 49.5615 150.947 48.972 151.244 48.441C151.55 47.91 151.96 47.487 152.473 47.172C152.986 46.857 153.557 46.6995 154.187 46.6995C154.808 46.6995 155.362 46.857 155.848 47.172C156.334 47.487 156.721 47.9145 157.009 48.4545C157.297 48.9855 157.441 49.5795 157.441 50.2365V50.5875H151.96C152.014 50.9925 152.153 51.3615 152.378 51.6945C152.603 52.0185 152.887 52.275 153.229 52.464C153.58 52.653 153.967 52.7475 154.39 52.7475C154.732 52.7475 155.06 52.6935 155.375 52.5855C155.699 52.4775 155.974 52.3245 156.199 52.1265L156.928 52.8825C156.541 53.1705 156.136 53.3865 155.713 53.5305C155.299 53.6745 154.84 53.7465 154.336 53.7465ZM151.973 49.683H156.293C156.23 49.305 156.095 48.9675 155.888 48.6705C155.69 48.3645 155.443 48.126 155.146 47.955C154.849 47.784 154.52 47.6985 154.16 47.6985C153.791 47.6985 153.454 47.784 153.148 47.955C152.842 48.117 152.585 48.351 152.378 48.657C152.171 48.954 152.036 49.296 151.973 49.683ZM161.102 53.76C160.526 53.76 159.986 53.67 159.482 53.49C158.987 53.31 158.555 53.0535 158.186 52.7205L158.848 51.9645C159.181 52.2525 159.536 52.473 159.914 52.626C160.292 52.779 160.675 52.8555 161.062 52.8555C161.575 52.8555 161.993 52.752 162.317 52.545C162.65 52.329 162.817 52.0545 162.817 51.7215C162.817 51.4515 162.718 51.24 162.52 51.087C162.331 50.925 162.034 50.8125 161.629 50.7495L160.414 50.5875C159.739 50.4885 159.23 50.2815 158.888 49.9665C158.555 49.6515 158.389 49.2285 158.389 48.6975C158.389 48.3015 158.497 47.955 158.713 47.658C158.938 47.352 159.248 47.1135 159.644 46.9425C160.04 46.7625 160.495 46.6725 161.008 46.6725C161.503 46.6725 161.971 46.7445 162.412 46.8885C162.862 47.0325 163.294 47.2575 163.708 47.5635L163.114 48.3465C162.736 48.0855 162.367 47.8965 162.007 47.7795C161.656 47.6625 161.296 47.604 160.927 47.604C160.486 47.604 160.13 47.6985 159.86 47.8875C159.59 48.0765 159.455 48.3285 159.455 48.6435C159.455 48.9225 159.545 49.1385 159.725 49.2915C159.914 49.4355 160.22 49.539 160.643 49.602L161.858 49.764C162.533 49.854 163.042 50.0565 163.384 50.3715C163.735 50.6865 163.91 51.1095 163.91 51.6405C163.91 52.0455 163.784 52.41 163.532 52.734C163.289 53.049 162.956 53.301 162.533 53.49C162.11 53.67 161.633 53.76 161.102 53.76Z" fill="#1F2A16" fill-opacity="0.7"/>
<path d="M204.119 53.76C203.363 53.76 202.639 53.6115 201.946 53.3145C201.253 53.0175 200.645 52.59 200.123 52.032L200.893 51.1815C201.388 51.6945 201.905 52.077 202.445 52.329C202.994 52.581 203.57 52.707 204.173 52.707C204.65 52.707 205.069 52.635 205.429 52.491C205.798 52.347 206.086 52.1445 206.293 51.8835C206.5 51.6135 206.603 51.312 206.603 50.979C206.603 50.52 206.441 50.169 206.117 49.926C205.802 49.683 205.276 49.503 204.538 49.386L203.08 49.143C202.189 48.99 201.527 48.7155 201.095 48.3195C200.672 47.9235 200.461 47.3925 200.461 46.7265C200.461 46.1955 200.6 45.7275 200.879 45.3225C201.167 44.9175 201.563 44.607 202.067 44.391C202.58 44.166 203.174 44.0535 203.849 44.0535C204.524 44.0535 205.186 44.166 205.834 44.391C206.491 44.607 207.085 44.9175 207.616 45.3225L206.927 46.254C205.901 45.471 204.857 45.0795 203.795 45.0795C203.363 45.0795 202.985 45.147 202.661 45.282C202.337 45.408 202.085 45.588 201.905 45.822C201.725 46.047 201.635 46.317 201.635 46.632C201.635 47.046 201.775 47.3655 202.054 47.5905C202.333 47.8065 202.796 47.964 203.444 48.063L204.875 48.2925C205.892 48.4635 206.635 48.756 207.103 49.17C207.571 49.584 207.805 50.16 207.805 50.898C207.805 51.465 207.647 51.9645 207.332 52.3965C207.026 52.8285 206.594 53.166 206.036 53.409C205.487 53.643 204.848 53.76 204.119 53.76ZM208.999 56.379V46.8075H210.146V47.5095C210.731 46.9695 211.447 46.6995 212.293 46.6995C212.941 46.6995 213.521 46.857 214.034 47.172C214.556 47.487 214.97 47.91 215.276 48.441C215.582 48.963 215.735 49.5525 215.735 50.2095C215.735 50.8755 215.582 51.474 215.276 52.005C214.97 52.527 214.556 52.9455 214.034 53.2605C213.512 53.5755 212.927 53.733 212.279 53.733C211.892 53.733 211.519 53.67 211.159 53.544C210.799 53.409 210.466 53.2245 210.16 52.9905V56.379H208.999ZM212.158 52.7205C212.626 52.7205 213.04 52.6125 213.4 52.3965C213.769 52.1715 214.057 51.8745 214.264 51.5055C214.48 51.1275 214.588 50.7 214.588 50.223C214.588 49.746 214.48 49.3185 214.264 48.9405C214.057 48.5625 213.769 48.2655 213.4 48.0495C213.04 47.8245 212.63 47.712 212.171 47.712C211.757 47.712 211.375 47.793 211.024 47.955C210.682 48.108 210.394 48.324 210.16 48.603V51.843C210.394 52.113 210.686 52.329 211.037 52.491C211.388 52.644 211.762 52.7205 212.158 52.7205ZM220.267 53.76C219.619 53.76 219.025 53.6025 218.485 53.2875C217.954 52.9725 217.531 52.5495 217.216 52.0185C216.91 51.4875 216.757 50.889 216.757 50.223C216.757 49.566 216.91 48.972 217.216 48.441C217.531 47.901 217.954 47.4735 218.485 47.1585C219.025 46.8435 219.619 46.686 220.267 46.686C220.924 46.686 221.518 46.8435 222.049 47.1585C222.58 47.4735 223.003 47.901 223.318 48.441C223.633 48.972 223.79 49.566 223.79 50.223C223.79 50.889 223.633 51.4875 223.318 52.0185C223.003 52.5495 222.58 52.9725 222.049 53.2875C221.518 53.6025 220.924 53.76 220.267 53.76ZM220.267 52.734C220.708 52.734 221.108 52.6215 221.468 52.3965C221.828 52.1715 222.112 51.87 222.319 51.492C222.535 51.114 222.643 50.691 222.643 50.223C222.643 49.746 222.535 49.323 222.319 48.954C222.112 48.576 221.828 48.2745 221.468 48.0495C221.108 47.8245 220.708 47.712 220.267 47.712C219.826 47.712 219.425 47.8245 219.065 48.0495C218.714 48.2745 218.431 48.576 218.215 48.954C218.008 49.323 217.904 49.746 217.904 50.223C217.904 50.691 218.008 51.114 218.215 51.492C218.431 51.87 218.714 52.1715 219.065 52.3965C219.425 52.6215 219.826 52.734 220.267 52.734ZM225.122 53.625V46.8075H226.283V47.5635C226.814 46.9695 227.516 46.6725 228.389 46.6725C228.911 46.6725 229.37 46.785 229.766 47.01C230.162 47.235 230.468 47.5455 230.684 47.9415C230.909 48.3375 231.022 48.801 231.022 49.332V53.625H229.874V49.548C229.874 48.972 229.712 48.5175 229.388 48.1845C229.064 47.8515 228.623 47.685 228.065 47.685C227.678 47.685 227.332 47.7705 227.026 47.9415C226.729 48.1125 226.481 48.351 226.283 48.657V53.625H225.122ZM234.891 53.76C234.315 53.76 233.775 53.67 233.271 53.49C232.776 53.31 232.344 53.0535 231.975 52.7205L232.637 51.9645C232.97 52.2525 233.325 52.473 233.703 52.626C234.081 52.779 234.464 52.8555 234.851 52.8555C235.364 52.8555 235.782 52.752 236.106 52.545C236.439 52.329 236.606 52.0545 236.606 51.7215C236.606 51.4515 236.507 51.24 236.309 51.087C236.12 50.925 235.823 50.8125 235.418 50.7495L234.203 50.5875C233.528 50.4885 233.019 50.2815 232.677 49.9665C232.344 49.6515 232.178 49.2285 232.178 48.6975C232.178 48.3015 232.286 47.955 232.502 47.658C232.727 47.352 233.037 47.1135 233.433 46.9425C233.829 46.7625 234.284 46.6725 234.797 46.6725C235.292 46.6725 235.76 46.7445 236.201 46.8885C236.651 47.0325 237.083 47.2575 237.497 47.5635L236.903 48.3465C236.525 48.0855 236.156 47.8965 235.796 47.7795C235.445 47.6625 235.085 47.604 234.716 47.604C234.275 47.604 233.919 47.6985 233.649 47.8875C233.379 48.0765 233.244 48.3285 233.244 48.6435C233.244 48.9225 233.334 49.1385 233.514 49.2915C233.703 49.4355 234.009 49.539 234.432 49.602L235.647 49.764C236.322 49.854 236.831 50.0565 237.173 50.3715C237.524 50.6865 237.699 51.1095 237.699 51.6405C237.699 52.0455 237.573 52.41 237.321 52.734C237.078 53.049 236.745 53.301 236.322 53.49C235.899 53.67 235.422 53.76 234.891 53.76ZM242.046 53.76C241.398 53.76 240.804 53.6025 240.264 53.2875C239.733 52.9725 239.31 52.5495 238.995 52.0185C238.689 51.4875 238.536 50.889 238.536 50.223C238.536 49.566 238.689 48.972 238.995 48.441C239.31 47.901 239.733 47.4735 240.264 47.1585C240.804 46.8435 241.398 46.686 242.046 46.686C242.703 46.686 243.297 46.8435 243.828 47.1585C244.359 47.4735 244.782 47.901 245.097 48.441C245.412 48.972 245.569 49.566 245.569 50.223C245.569 50.889 245.412 51.4875 245.097 52.0185C244.782 52.5495 244.359 52.9725 243.828 53.2875C243.297 53.6025 242.703 53.76 242.046 53.76ZM242.046 52.734C242.487 52.734 242.887 52.6215 243.247 52.3965C243.607 52.1715 243.891 51.87 244.098 51.492C244.314 51.114 244.422 50.691 244.422 50.223C244.422 49.746 244.314 49.323 244.098 48.954C243.891 48.576 243.607 48.2745 243.247 48.0495C242.887 47.8245 242.487 47.712 242.046 47.712C241.605 47.712 241.204 47.8245 240.844 48.0495C240.493 48.2745 240.21 48.576 239.994 48.954C239.787 49.323 239.683 49.746 239.683 50.223C239.683 50.691 239.787 51.114 239.994 51.492C240.21 51.87 240.493 52.1715 240.844 52.3965C241.204 52.6215 241.605 52.734 242.046 52.734ZM246.902 53.625V46.8075H248.063V47.739C248.279 47.397 248.544 47.1315 248.859 46.9425C249.174 46.7535 249.539 46.659 249.953 46.659C250.205 46.659 250.425 46.695 250.614 46.767V47.82C250.497 47.766 250.376 47.73 250.25 47.712C250.124 47.694 249.998 47.685 249.872 47.685C249.467 47.685 249.107 47.7975 248.792 48.0225C248.486 48.2475 248.243 48.576 248.063 49.008V53.625H246.902ZM253.955 53.76C253.379 53.76 252.839 53.67 252.335 53.49C251.84 53.31 251.408 53.0535 251.039 52.7205L251.7 51.9645C252.033 52.2525 252.389 52.473 252.767 52.626C253.145 52.779 253.527 52.8555 253.914 52.8555C254.427 52.8555 254.846 52.752 255.17 52.545C255.503 52.329 255.669 52.0545 255.669 51.7215C255.669 51.4515 255.57 51.24 255.372 51.087C255.183 50.925 254.886 50.8125 254.481 50.7495L253.266 50.5875C252.591 50.4885 252.083 50.2815 251.741 49.9665C251.408 49.6515 251.241 49.2285 251.241 48.6975C251.241 48.3015 251.349 47.955 251.565 47.658C251.79 47.352 252.101 47.1135 252.497 46.9425C252.893 46.7625 253.347 46.6725 253.86 46.6725C254.355 46.6725 254.823 46.7445 255.264 46.8885C255.714 47.0325 256.146 47.2575 256.56 47.5635L255.966 48.3465C255.588 48.0855 255.219 47.8965 254.859 47.7795C254.508 47.6625 254.148 47.604 253.779 47.604C253.338 47.604 252.983 47.6985 252.713 47.8875C252.443 48.0765 252.308 48.3285 252.308 48.6435C252.308 48.9225 252.398 49.1385 252.578 49.2915C252.767 49.4355 253.073 49.539 253.496 49.602L254.711 49.764C255.386 49.854 255.894 50.0565 256.236 50.3715C256.587 50.6865 256.763 51.1095 256.763 51.6405C256.763 52.0455 256.637 52.41 256.385 52.734C256.142 53.049 255.809 53.301 255.386 53.49C254.963 53.67 254.486 53.76 253.955 53.76Z" fill="#1F2A16" fill-opacity="0.7"/>
<path d="M293.831 53.625V44.175H300.703V45.2415H295.046V48.4005H298.759V49.44H295.046V53.625H293.831ZM299.451 53.625L303.353 44.175H304.797L308.685 53.625H307.362L306.215 50.7495H301.868L300.707 53.625H299.451ZM302.273 49.7235H305.81L304.041 45.309L302.273 49.7235ZM316.857 53.8815L316.195 53.0985C315.835 53.3055 315.444 53.472 315.021 53.598C314.607 53.715 314.166 53.7735 313.698 53.7735C313.014 53.7735 312.375 53.652 311.781 53.409C311.187 53.157 310.665 52.8105 310.215 52.3695C309.774 51.9195 309.427 51.402 309.175 50.817C308.932 50.223 308.811 49.584 308.811 48.9C308.811 48.216 308.932 47.5815 309.175 46.9965C309.427 46.4025 309.774 45.885 310.215 45.444C310.665 44.994 311.187 44.6475 311.781 44.4045C312.375 44.1525 313.014 44.0265 313.698 44.0265C314.382 44.0265 315.016 44.1525 315.601 44.4045C316.195 44.6475 316.717 44.994 317.167 45.444C317.617 45.885 317.964 46.4025 318.207 46.9965C318.459 47.5815 318.585 48.216 318.585 48.9C318.585 49.602 318.445 50.2635 318.166 50.8845C317.896 51.4965 317.527 52.023 317.059 52.464L318.045 53.6655L316.857 53.8815ZM313.698 52.653C314.022 52.653 314.328 52.617 314.616 52.545C314.913 52.464 315.192 52.347 315.453 52.194L314.157 50.655L315.345 50.412L316.303 51.5595C316.636 51.2175 316.893 50.8215 317.073 50.3715C317.262 49.9125 317.356 49.422 317.356 48.9C317.356 48.36 317.262 47.865 317.073 47.415C316.884 46.965 316.623 46.569 316.29 46.227C315.966 45.885 315.583 45.6195 315.142 45.4305C314.701 45.2415 314.22 45.147 313.698 45.147C313.185 45.147 312.703 45.2415 312.253 45.4305C311.812 45.6195 311.425 45.885 311.092 46.227C310.759 46.569 310.498 46.965 310.309 47.415C310.129 47.865 310.039 48.36 310.039 48.9C310.039 49.431 310.129 49.926 310.309 50.385C310.498 50.835 310.759 51.231 311.092 51.573C311.425 51.915 311.812 52.1805 312.253 52.3695C312.703 52.5585 313.185 52.653 313.698 52.653Z" fill="#1F2A16" fill-opacity="0.7"/>
</g>
<defs>
<filter id="filter0_di_1887_25066" x="0" y="0" width="374" height="114" filterUnits="userSpaceOnUse" color-interpolation-filters="sRGB">
<feFlood flood-opacity="0" result="BackgroundImageFix"/>
<feColorMatrix in="SourceAlpha" type="matrix" values="0 0 0 0 0 0 0 0 0 0 0 0 0 0 0 0 0 0 127 0" result="hardAlpha"/>
<feOffset dy="8"/>
<feGaussianBlur stdDeviation="16"/>
<feComposite in2="hardAlpha" operator="out"/>
<feColorMatrix type="matrix" values="0 0 0 0 0.121569 0 0 0 0 0.164706 0 0 0 0 0.0862745 0 0 0 0.12 0"/>
<feBlend mode="normal" in2="BackgroundImageFix" result="effect1_dropShadow_1887_25066"/>
<feBlend mode="normal" in="SourceGraphic" in2="effect1_dropShadow_1887_25066" result="shape"/>
<feColorMatrix in="SourceAlpha" type="matrix" values="0 0 0 0 0 0 0 0 0 0 0 0 0 0 0 0 0 0 127 0" result="hardAlpha"/>
<feOffset dy="1"/>
<feComposite in2="hardAlpha" operator="arithmetic" k2="-1" k3="1"/>
<feColorMatrix type="matrix" values="0 0 0 0 1 0 0 0 0 1 0 0 0 0 1 0 0 0 0.8 0"/>
<feBlend mode="normal" in2="shape" result="effect2_innerShadow_1887_25066"/>
</filter>
</defs>
</svg>
