<svg preserveAspectRatio="none" width="100%" height="100%" overflow="visible" style="display: block;" viewBox="0 0 16.501 13.1267" fill="none" xmlns="http://www.w3.org/2000/svg">
<path id="Vector" d="M16.281 12.8059C16.2114 12.9076 16.1287 12.9883 16.0376 13.0433C15.9466 13.0984 15.849 13.1267 15.7504 13.1267C15.6519 13.1267 15.5543 13.0984 15.4632 13.0433C15.3722 12.9883 15.2894 12.9076 15.2198 12.8059L8.25042 2.6409L1.28104 12.8059C1.14031 13.0112 0.94944 13.1265 0.750417 13.1265C0.551394 13.1265 0.360523 13.0112 0.219792 12.8059C0.0790615 12.6007 3.92322e-09 12.3224 0 12.0321C-3.92322e-09 11.7419 0.0790615 11.4635 0.219792 11.2583L7.71979 0.320782C7.78945 0.219089 7.87216 0.138416 7.96321 0.0833735C8.05426 0.0283313 8.15186 0 8.25042 0C8.34898 0 8.44657 0.0283313 8.53762 0.0833735C8.62867 0.138416 8.71139 0.219089 8.78104 0.320782L16.281 11.2583C16.3508 11.3599 16.4061 11.4805 16.4438 11.6133C16.4816 11.746 16.501 11.8884 16.501 12.0321C16.501 12.1758 16.4816 12.3182 16.4438 12.451C16.4061 12.5837 16.3508 12.7044 16.281 12.8059Z" fill="var(--fill-0, black)"/>
</svg>
