<svg preserveAspectRatio="none" width="100%" height="100%" overflow="visible" style="display: block;" viewBox="0 0 141.513 136.141" fill="none" xmlns="http://www.w3.org/2000/svg">
<g id="Group 22" filter="url(#filter0_f_0_56)">
<g id="Ellipse 5">
<path d="M66.593 65.4465C59.5295 73.9968 30.3558 93.0072 19.6246 95.8842C1.72579 94.2608 4.80808 78.2983 5.92236 66.0126C7.03664 53.727 26.3702 49.1331 44.2691 50.7565C62.1679 52.3799 67.7073 53.1609 66.593 65.4465Z" fill="url(#paint0_linear_0_56)"/>
<path d="M66.593 65.4465C59.5295 73.9968 30.3558 93.0072 19.6246 95.8842C1.72579 94.2608 4.80808 78.2983 5.92236 66.0126C7.03664 53.727 26.3702 49.1331 44.2691 50.7565C62.1679 52.3799 67.7073 53.1609 66.593 65.4465Z" fill="url(#paint1_linear_0_56)"/>
</g>
<g id="Ellipse 9">
<path d="M78.0647 61.6591C89.151 61.3512 122.663 70.8086 131.891 76.9957C142.447 91.5413 128.399 99.7246 118.415 106.97C108.431 114.216 92.2496 102.681 81.6937 88.1352C71.1377 73.5895 68.0806 68.9046 78.0647 61.6591Z" fill="url(#paint2_linear_0_56)"/>
<path d="M78.0647 61.6591C89.151 61.3512 122.663 70.8086 131.891 76.9957C142.447 91.5413 128.399 99.7246 118.415 106.97C108.431 114.216 92.2496 102.681 81.6937 88.1352C71.1377 73.5895 68.0806 68.9046 78.0647 61.6591Z" fill="url(#paint3_linear_0_56)"/>
</g>
<g id="Ellipse 6">
<path d="M62.1316 67.0651C53.8518 59.6866 35.9461 29.822 33.4728 18.9908C35.7647 1.16518 51.6011 4.84269 63.8361 6.41586C76.0712 7.98902 79.9387 27.481 77.6467 45.3065C75.3547 63.1321 74.3667 68.6383 62.1316 67.0651Z" fill="url(#paint4_linear_0_56)"/>
<path d="M62.1316 67.0651C53.8518 59.6866 35.9461 29.822 33.4728 18.9908C35.7647 1.16518 51.6011 4.84269 63.8361 6.41586C76.0712 7.98902 79.9387 27.481 77.6467 45.3065C75.3547 63.1321 74.3667 68.6383 62.1316 67.0651Z" fill="url(#paint5_linear_0_56)"/>
</g>
<g id="Ellipse 8">
<path d="M65.9151 62.6498C69.1081 52.0289 88.621 23.1887 97.3954 16.3738C114.522 10.9257 123.08 26.834 126.819 38.5893C130.559 50.3446 114.522 62.0799 97.3954 67.528C80.2687 72.9761 69.6546 74.4051 65.9151 62.6498Z" fill="url(#paint6_linear_0_56)"/>
<path d="M65.9151 62.6498C69.1081 52.0289 88.621 23.1887 97.3954 16.3738C114.522 10.9257 123.08 26.834 126.819 38.5893C130.559 50.3446 114.522 62.0799 97.3954 67.528C80.2687 72.9761 69.6546 74.4051 65.9151 62.6498Z" fill="url(#paint7_linear_0_56)"/>
</g>
<g id="Ellipse 7">
<path d="M69.1288 65.6205C76.2323 74.1375 83.7239 108.268 84.5758 119.345C79.6848 136.639 63.7294 130.762 51.8592 127.404C39.9891 124.047 40.9035 113.483 45.7945 96.1892C50.6856 78.8952 57.2587 62.2634 69.1288 65.6205Z" fill="url(#paint8_linear_0_56)"/>
<path d="M69.1288 65.6205C76.2323 74.1375 83.7239 108.268 84.5758 119.345C79.6848 136.639 63.7294 130.762 51.8592 127.404C39.9891 124.047 40.9035 113.483 45.7945 96.1892C50.6856 78.8952 57.2587 62.2634 69.1288 65.6205Z" fill="url(#paint9_linear_0_56)"/>
</g>
<path id="Star 2" d="M68.3555 46.6518C68.9247 44.6573 71.7513 44.6573 72.3205 46.6518L74.7423 55.1381C75.0477 56.2079 76.1468 56.8426 77.226 56.572L85.7863 54.4263C87.7982 53.922 89.2114 56.3698 87.7688 57.86L81.6304 64.2006C80.8565 64.9999 80.8565 66.2691 81.6304 67.0685L87.7688 73.409C89.2114 74.8992 87.7982 77.3471 85.7863 76.8428L77.226 74.697C76.1468 74.4265 75.0477 75.0611 74.7423 76.131L72.3205 84.6173C71.7513 86.6117 68.9247 86.6117 68.3555 84.6173L65.9337 76.131C65.6283 75.0611 64.5292 74.4265 63.45 74.697L54.8897 76.8428C52.8778 77.347 51.4646 74.8992 52.9072 73.409L59.0456 67.0685C59.8195 66.2691 59.8195 64.9999 59.0456 64.2006L52.9072 57.86C51.4646 56.3698 52.8778 53.922 54.8897 54.4263L63.45 56.572C64.5292 56.8426 65.6283 56.2079 65.9337 55.1381L68.3555 46.6518Z" fill="var(--fill-0, #69A13B)"/>
<path id="Star 1" d="M68.3542 53.5482C68.9234 51.5537 71.7499 51.5537 72.3191 53.5482L73.4239 57.4195C73.7293 58.4894 74.8284 59.124 75.9077 58.8535L79.8128 57.8746C81.8246 57.3703 83.2379 59.8182 81.7952 61.3083L78.9949 64.2008C78.2211 65.0002 78.2211 66.2694 78.9949 67.0688L81.7952 69.9613C83.2379 71.4515 81.8246 73.8993 79.8128 73.395L75.9077 72.4161C74.8284 72.1456 73.7293 72.7802 73.4239 73.8501L72.3191 77.7215C71.7499 79.7159 68.9234 79.7159 68.3542 77.7215L67.2494 73.8501C66.944 72.7802 65.8449 72.1456 64.7656 72.4161L60.8605 73.395C58.8487 73.8993 57.4354 71.4515 58.8781 69.9613L61.6784 67.0688C62.4522 66.2694 62.4522 65.0002 61.6784 64.2008L58.8781 61.3083C57.4354 59.8182 58.8487 57.3703 60.8605 57.8746L64.7657 58.8535C65.8449 59.124 66.944 58.4894 67.2494 57.4195L68.3542 53.5482Z" fill="var(--fill-0, #A7D98B)"/>
<g id="Group 1">
<g id="Vector 10" filter="url(#filter1_d_0_56)">
<path d="M74.4755 52.6702C72.8383 54.7112 69.7391 58.9478 70.4391 59.5663" stroke="url(#paint10_linear_0_56)" stroke-width="1.64928" stroke-linecap="round"/>
</g>
<g id="Ellipse 12">
<path d="M79.6588 51.5964C78.8974 52.584 78.4799 53.3799 76.0729 53.4978C74.0834 53.3504 73.4694 52.8935 72.4869 51.5964C73.4448 50.5057 74.2308 50.0045 76.0729 49.636C77.866 49.636 78.5536 50.3877 79.6588 51.5964Z" fill="url(#paint11_radial_0_56)"/>
<path d="M79.6588 51.5964C78.8974 52.584 78.4799 53.3799 76.0729 53.4978C74.0834 53.3504 73.4694 52.8935 72.4869 51.5964C73.4448 50.5057 74.2308 50.0045 76.0729 49.636C77.866 49.636 78.5536 50.3877 79.6588 51.5964Z" fill="url(#paint12_radial_0_56)"/>
</g>
</g>
<g id="Group 2">
<g id="Vector 10_2" filter="url(#filter2_d_0_56)">
<path d="M80.2697 59.2899C78.6325 61.3309 75.5333 65.5675 76.2333 66.186" stroke="url(#paint13_linear_0_56)" stroke-width="1.64928" stroke-linecap="round"/>
</g>
<g id="Ellipse 12_2">
<path d="M85.453 58.2161C84.6916 59.2037 84.2741 59.9996 81.8671 60.1175C79.8776 59.9701 79.2636 59.5132 78.2811 58.2161C79.239 57.1254 80.025 56.6242 81.8671 56.2557C83.6602 56.2557 84.3478 57.0074 85.453 58.2161Z" fill="url(#paint14_radial_0_56)"/>
<path d="M85.453 58.2161C84.6916 59.2037 84.2741 59.9996 81.8671 60.1175C79.8776 59.9701 79.2636 59.5132 78.2811 58.2161C79.239 57.1254 80.025 56.6242 81.8671 56.2557C83.6602 56.2557 84.3478 57.0074 85.453 58.2161Z" fill="url(#paint15_radial_0_56)"/>
</g>
</g>
<g id="Group 3">
<g id="Vector 10_3" filter="url(#filter3_d_0_56)">
<path d="M73.9261 59.2919C72.289 61.3329 69.1897 65.5695 69.8898 66.188" stroke="url(#paint16_linear_0_56)" stroke-width="1.64928" stroke-linecap="round"/>
</g>
<g id="Ellipse 12_3">
<path d="M79.1095 58.2181C78.3481 59.2056 77.9305 60.0016 75.5235 60.1195C73.534 59.9721 72.92 59.5152 71.9375 58.2181C72.8954 57.1273 73.6814 56.6262 75.5235 56.2577C77.3167 56.2577 78.0042 57.0094 79.1095 58.2181Z" fill="url(#paint17_radial_0_56)"/>
<path d="M79.1095 58.2181C78.3481 59.2056 77.9305 60.0016 75.5235 60.1195C73.534 59.9721 72.92 59.5152 71.9375 58.2181C72.8954 57.1273 73.6814 56.6262 75.5235 56.2577C77.3167 56.2577 78.0042 57.0094 79.1095 58.2181Z" fill="url(#paint18_radial_0_56)"/>
</g>
<g id="Group 2_2">
<g id="Vector 10_4" filter="url(#filter4_d_0_56)">
<path d="M67.3044 55.9799C65.6673 58.0209 62.568 62.2575 63.2681 62.876" stroke="url(#paint19_linear_0_56)" stroke-width="1.64928" stroke-linecap="round"/>
</g>
<g id="Ellipse 12_4">
<path d="M72.4894 54.9061C71.728 55.8937 71.3105 56.6896 68.9034 56.8075C66.914 56.6601 66.2999 56.2032 65.3175 54.9061C66.2754 53.8154 67.0613 53.3142 68.9034 52.9457C70.6966 52.9457 71.3842 53.6975 72.4894 54.9061Z" fill="url(#paint20_radial_0_56)"/>
<path d="M72.4894 54.9061C71.728 55.8937 71.3105 56.6896 68.9034 56.8075C66.914 56.6601 66.2999 56.2032 65.3175 54.9061C66.2754 53.8154 67.0613 53.3142 68.9034 52.9457C70.6966 52.9457 71.3842 53.6975 72.4894 54.9061Z" fill="url(#paint21_radial_0_56)"/>
</g>
<g id="Group 2_3">
<g id="Vector 10_5" filter="url(#filter5_d_0_56)">
<path d="M68.6839 63.1513C67.0468 65.1923 63.9475 69.429 64.6475 70.0474" stroke="url(#paint22_linear_0_56)" stroke-width="1.64928" stroke-linecap="round"/>
</g>
<g id="Ellipse 12_5">
<path d="M73.8681 62.0775C73.1067 63.0651 72.6891 63.861 70.2821 63.9789C68.2926 63.8316 67.6786 63.3746 66.6962 62.0775C67.654 60.9868 68.44 60.4856 70.2821 60.1171C72.0753 60.1171 72.7628 60.8689 73.8681 62.0775Z" fill="url(#paint23_radial_0_56)"/>
<path d="M73.8681 62.0775C73.1067 63.0651 72.6891 63.861 70.2821 63.9789C68.2926 63.8316 67.6786 63.3746 66.6962 62.0775C67.654 60.9868 68.44 60.4856 70.2821 60.1171C72.0753 60.1171 72.7628 60.8689 73.8681 62.0775Z" fill="url(#paint24_radial_0_56)"/>
</g>
<g id="Group 2_4">
<g id="Vector 10_6" filter="url(#filter6_d_0_56)">
<path d="M76.1319 65.0842C74.4948 67.1252 71.3956 71.3618 72.0956 71.9803" stroke="url(#paint25_linear_0_56)" stroke-width="1.64928" stroke-linecap="round"/>
</g>
<g id="Ellipse 12_6">
<path d="M81.3153 64.0104C80.5539 64.9979 80.1363 65.7939 77.7293 65.9118C75.7399 65.7644 75.1258 65.3075 74.1434 64.0104C75.1013 62.9196 75.8872 62.4185 77.7293 62.05C79.5225 62.05 80.21 62.8017 81.3153 64.0104Z" fill="url(#paint26_radial_0_56)"/>
<path d="M81.3153 64.0104C80.5539 64.9979 80.1363 65.7939 77.7293 65.9118C75.7399 65.7644 75.1258 65.3075 74.1434 64.0104C75.1013 62.9196 75.8872 62.4185 77.7293 62.05C79.5225 62.05 80.21 62.8017 81.3153 64.0104Z" fill="url(#paint27_radial_0_56)"/>
</g>
</g>
</g>
</g>
</g>
<g id="Ellipse 29">
<path d="M66.593 65.4465C59.5295 73.9968 30.3558 93.0072 19.6246 95.8842C1.72579 94.2608 4.80808 78.2983 5.92236 66.0126C7.03664 53.727 26.3702 49.1331 44.2691 50.7565C62.1679 52.3799 67.7073 53.1609 66.593 65.4465Z" fill="url(#paint28_linear_0_56)"/>
<path d="M66.593 65.4465C59.5295 73.9968 30.3558 93.0072 19.6246 95.8842C1.72579 94.2608 4.80808 78.2983 5.92236 66.0126C7.03664 53.727 26.3702 49.1331 44.2691 50.7565C62.1679 52.3799 67.7073 53.1609 66.593 65.4465Z" fill="url(#paint29_linear_0_56)"/>
</g>
<g id="Ellipse 30">
<path d="M78.0647 61.6591C89.151 61.3512 122.663 70.8086 131.891 76.9957C142.447 91.5413 128.399 99.7246 118.415 106.97C108.431 114.216 92.2496 102.681 81.6937 88.1352C71.1377 73.5895 68.0806 68.9046 78.0647 61.6591Z" fill="url(#paint30_linear_0_56)"/>
<path d="M78.0647 61.6591C89.151 61.3512 122.663 70.8086 131.891 76.9957C142.447 91.5413 128.399 99.7246 118.415 106.97C108.431 114.216 92.2496 102.681 81.6937 88.1352C71.1377 73.5895 68.0806 68.9046 78.0647 61.6591Z" fill="url(#paint31_linear_0_56)"/>
</g>
<g id="Ellipse 31">
<path d="M62.1316 67.0651C53.8518 59.6866 35.9461 29.822 33.4728 18.9908C35.7647 1.16518 51.6011 4.84269 63.8361 6.41586C76.0712 7.98902 79.9387 27.481 77.6467 45.3065C75.3547 63.1321 74.3667 68.6383 62.1316 67.0651Z" fill="url(#paint32_linear_0_56)"/>
<path d="M62.1316 67.0651C53.8518 59.6866 35.9461 29.822 33.4728 18.9908C35.7647 1.16518 51.6011 4.84269 63.8361 6.41586C76.0712 7.98902 79.9387 27.481 77.6467 45.3065C75.3547 63.1321 74.3667 68.6383 62.1316 67.0651Z" fill="url(#paint33_linear_0_56)"/>
</g>
<g id="Ellipse 32">
<path d="M65.9151 62.6498C69.1081 52.0289 88.621 23.1887 97.3954 16.3738C114.522 10.9257 123.08 26.834 126.819 38.5893C130.559 50.3446 114.522 62.0799 97.3954 67.528C80.2687 72.9761 69.6546 74.4051 65.9151 62.6498Z" fill="url(#paint34_linear_0_56)"/>
<path d="M65.9151 62.6498C69.1081 52.0289 88.621 23.1887 97.3954 16.3738C114.522 10.9257 123.08 26.834 126.819 38.5893C130.559 50.3446 114.522 62.0799 97.3954 67.528C80.2687 72.9761 69.6546 74.4051 65.9151 62.6498Z" fill="url(#paint35_linear_0_56)"/>
</g>
<g id="Ellipse 33">
<path d="M69.1288 65.6205C76.2323 74.1375 83.7239 108.268 84.5758 119.345C79.6848 136.639 63.7294 130.762 51.8592 127.404C39.9891 124.047 40.9035 113.483 45.7945 96.1892C50.6856 78.8952 57.2587 62.2634 69.1288 65.6205Z" fill="url(#paint36_linear_0_56)"/>
<path d="M69.1288 65.6205C76.2323 74.1375 83.7239 108.268 84.5758 119.345C79.6848 136.639 63.7294 130.762 51.8592 127.404C39.9891 124.047 40.9035 113.483 45.7945 96.1892C50.6856 78.8952 57.2587 62.2634 69.1288 65.6205Z" fill="url(#paint37_linear_0_56)"/>
</g>
<path id="Star 4" d="M68.3555 46.6518C68.9247 44.6573 71.7513 44.6573 72.3205 46.6518L74.7423 55.1381C75.0477 56.2079 76.1468 56.8426 77.226 56.572L85.7863 54.4263C87.7982 53.922 89.2114 56.3698 87.7688 57.86L81.6304 64.2006C80.8565 64.9999 80.8565 66.2691 81.6304 67.0685L87.7688 73.409C89.2114 74.8992 87.7982 77.3471 85.7863 76.8428L77.226 74.697C76.1468 74.4265 75.0477 75.0611 74.7423 76.131L72.3205 84.6173C71.7513 86.6117 68.9247 86.6117 68.3555 84.6173L65.9337 76.131C65.6283 75.0611 64.5292 74.4265 63.45 74.697L54.8897 76.8428C52.8778 77.347 51.4646 74.8992 52.9072 73.409L59.0456 67.0685C59.8195 66.2691 59.8195 64.9999 59.0456 64.2006L52.9072 57.86C51.4646 56.3698 52.8778 53.922 54.8897 54.4263L63.45 56.572C64.5292 56.8426 65.6283 56.2079 65.9337 55.1381L68.3555 46.6518Z" fill="var(--fill-0, #69A13B)"/>
<path id="Star 5" d="M68.3542 53.5482C68.9234 51.5537 71.7499 51.5537 72.3191 53.5482L73.4239 57.4195C73.7293 58.4894 74.8284 59.124 75.9077 58.8535L79.8128 57.8746C81.8246 57.3703 83.2379 59.8182 81.7952 61.3083L78.9949 64.2008C78.2211 65.0002 78.2211 66.2694 78.9949 67.0688L81.7952 69.9613C83.2379 71.4515 81.8246 73.8993 79.8128 73.395L75.9077 72.4161C74.8284 72.1456 73.7293 72.7802 73.4239 73.8501L72.3191 77.7215C71.7499 79.7159 68.9234 79.7159 68.3542 77.7215L67.2494 73.8501C66.944 72.7802 65.8449 72.1456 64.7656 72.4161L60.8605 73.395C58.8487 73.8993 57.4354 71.4515 58.8781 69.9613L61.6784 67.0688C62.4522 66.2694 62.4522 65.0002 61.6784 64.2008L58.8781 61.3083C57.4354 59.8182 58.8487 57.3703 60.8605 57.8746L64.7657 58.8535C65.8449 59.124 66.944 58.4894 67.2494 57.4195L68.3542 53.5482Z" fill="var(--fill-0, #A7D98B)"/>
<g id="Group 11">
<g id="Vector 10_7" filter="url(#filter7_d_0_56)">
<path d="M74.4755 52.6702C72.8383 54.7112 69.7391 58.9478 70.4391 59.5663" stroke="url(#paint38_linear_0_56)" stroke-width="1.64928" stroke-linecap="round"/>
</g>
<g id="Ellipse 12_7">
<path d="M79.6588 51.5964C78.8974 52.584 78.4799 53.3799 76.0729 53.4978C74.0834 53.3504 73.4694 52.8935 72.4869 51.5964C73.4448 50.5057 74.2308 50.0045 76.0729 49.636C77.866 49.636 78.5536 50.3877 79.6588 51.5964Z" fill="url(#paint39_radial_0_56)"/>
<path d="M79.6588 51.5964C78.8974 52.584 78.4799 53.3799 76.0729 53.4978C74.0834 53.3504 73.4694 52.8935 72.4869 51.5964C73.4448 50.5057 74.2308 50.0045 76.0729 49.636C77.866 49.636 78.5536 50.3877 79.6588 51.5964Z" fill="url(#paint40_radial_0_56)"/>
</g>
</g>
<g id="Group 12">
<g id="Vector 10_8" filter="url(#filter8_d_0_56)">
<path d="M80.2697 59.2899C78.6325 61.3309 75.5333 65.5675 76.2333 66.186" stroke="url(#paint41_linear_0_56)" stroke-width="1.64928" stroke-linecap="round"/>
</g>
<g id="Ellipse 12_8">
<path d="M85.453 58.2161C84.6916 59.2037 84.2741 59.9996 81.8671 60.1175C79.8776 59.9701 79.2636 59.5132 78.2811 58.2161C79.239 57.1254 80.025 56.6242 81.8671 56.2557C83.6602 56.2557 84.3478 57.0074 85.453 58.2161Z" fill="url(#paint42_radial_0_56)"/>
<path d="M85.453 58.2161C84.6916 59.2037 84.2741 59.9996 81.8671 60.1175C79.8776 59.9701 79.2636 59.5132 78.2811 58.2161C79.239 57.1254 80.025 56.6242 81.8671 56.2557C83.6602 56.2557 84.3478 57.0074 85.453 58.2161Z" fill="url(#paint43_radial_0_56)"/>
</g>
</g>
<g id="Group 13">
<g id="Vector 10_9" filter="url(#filter9_d_0_56)">
<path d="M73.9261 59.2919C72.289 61.3329 69.1897 65.5695 69.8898 66.188" stroke="url(#paint44_linear_0_56)" stroke-width="1.64928" stroke-linecap="round"/>
</g>
<g id="Ellipse 12_9">
<path d="M79.1095 58.2181C78.3481 59.2056 77.9305 60.0016 75.5235 60.1195C73.534 59.9721 72.92 59.5152 71.9375 58.2181C72.8954 57.1273 73.6814 56.6262 75.5235 56.2577C77.3167 56.2577 78.0042 57.0094 79.1095 58.2181Z" fill="url(#paint45_radial_0_56)"/>
<path d="M79.1095 58.2181C78.3481 59.2056 77.9305 60.0016 75.5235 60.1195C73.534 59.9721 72.92 59.5152 71.9375 58.2181C72.8954 57.1273 73.6814 56.6262 75.5235 56.2577C77.3167 56.2577 78.0042 57.0094 79.1095 58.2181Z" fill="url(#paint46_radial_0_56)"/>
</g>
<g id="Group 2_5">
<g id="Vector 10_10" filter="url(#filter10_d_0_56)">
<path d="M67.3044 55.9799C65.6673 58.0209 62.568 62.2575 63.2681 62.876" stroke="url(#paint47_linear_0_56)" stroke-width="1.64928" stroke-linecap="round"/>
</g>
<g id="Ellipse 12_10">
<path d="M72.4894 54.9061C71.728 55.8937 71.3105 56.6896 68.9034 56.8075C66.914 56.6601 66.2999 56.2032 65.3175 54.9061C66.2754 53.8154 67.0613 53.3142 68.9034 52.9457C70.6966 52.9457 71.3842 53.6975 72.4894 54.9061Z" fill="url(#paint48_radial_0_56)"/>
<path d="M72.4894 54.9061C71.728 55.8937 71.3105 56.6896 68.9034 56.8075C66.914 56.6601 66.2999 56.2032 65.3175 54.9061C66.2754 53.8154 67.0613 53.3142 68.9034 52.9457C70.6966 52.9457 71.3842 53.6975 72.4894 54.9061Z" fill="url(#paint49_radial_0_56)"/>
</g>
<g id="Group 2_6">
<g id="Vector 10_11" filter="url(#filter11_d_0_56)">
<path d="M68.6839 63.1513C67.0468 65.1923 63.9475 69.429 64.6475 70.0474" stroke="url(#paint50_linear_0_56)" stroke-width="1.64928" stroke-linecap="round"/>
</g>
<g id="Ellipse 12_11">
<path d="M73.8681 62.0775C73.1067 63.0651 72.6891 63.861 70.2821 63.9789C68.2926 63.8316 67.6786 63.3746 66.6962 62.0775C67.654 60.9868 68.44 60.4856 70.2821 60.1171C72.0753 60.1171 72.7628 60.8689 73.8681 62.0775Z" fill="url(#paint51_radial_0_56)"/>
<path d="M73.8681 62.0775C73.1067 63.0651 72.6891 63.861 70.2821 63.9789C68.2926 63.8316 67.6786 63.3746 66.6962 62.0775C67.654 60.9868 68.44 60.4856 70.2821 60.1171C72.0753 60.1171 72.7628 60.8689 73.8681 62.0775Z" fill="url(#paint52_radial_0_56)"/>
</g>
<g id="Group 2_7">
<g id="Vector 10_12" filter="url(#filter12_d_0_56)">
<path d="M76.1319 65.0842C74.4948 67.1252 71.3956 71.3618 72.0956 71.9803" stroke="url(#paint53_linear_0_56)" stroke-width="1.64928" stroke-linecap="round"/>
</g>
<g id="Ellipse 12_12">
<path d="M81.3153 64.0104C80.5539 64.9979 80.1363 65.7939 77.7293 65.9118C75.7399 65.7644 75.1258 65.3075 74.1434 64.0104C75.1013 62.9196 75.8872 62.4185 77.7293 62.05C79.5225 62.05 80.21 62.8017 81.3153 64.0104Z" fill="url(#paint54_radial_0_56)"/>
<path d="M81.3153 64.0104C80.5539 64.9979 80.1363 65.7939 77.7293 65.9118C75.7399 65.7644 75.1258 65.3075 74.1434 64.0104C75.1013 62.9196 75.8872 62.4185 77.7293 62.05C79.5225 62.05 80.21 62.8017 81.3153 64.0104Z" fill="url(#paint55_radial_0_56)"/>
</g>
</g>
</g>
</g>
</g>
</g>
<defs>
<filter id="filter0_f_0_56" x="0" y="0" width="140.643" height="136.141" filterUnits="userSpaceOnUse" color-interpolation-filters="sRGB">
<feFlood flood-opacity="0" result="BackgroundImageFix"/>
<feBlend mode="normal" in="SourceGraphic" in2="BackgroundImageFix" result="shape"/>
<feGaussianBlur stdDeviation="2.5" result="effect1_foregroundBlur_0_56"/>
</filter>
<filter id="filter1_d_0_56" x="68.6889" y="51.8456" width="7.43589" height="10.1947" filterUnits="userSpaceOnUse" color-interpolation-filters="sRGB">
<feFlood flood-opacity="0" result="BackgroundImageFix"/>
<feColorMatrix in="SourceAlpha" type="matrix" values="0 0 0 0 0 0 0 0 0 0 0 0 0 0 0 0 0 0 127 0" result="hardAlpha"/>
<feOffset dy="0.824642"/>
<feGaussianBlur stdDeviation="0.412321"/>
<feComposite in2="hardAlpha" operator="out"/>
<feColorMatrix type="matrix" values="0 0 0 0 0 0 0 0 0 0 0 0 0 0 0 0 0 0 0.25 0"/>
<feBlend mode="normal" in2="BackgroundImageFix" result="effect1_dropShadow_0_56"/>
<feBlend mode="normal" in="SourceGraphic" in2="effect1_dropShadow_0_56" result="shape"/>
</filter>
<filter id="filter2_d_0_56" x="74.4831" y="58.4653" width="7.43589" height="10.1947" filterUnits="userSpaceOnUse" color-interpolation-filters="sRGB">
<feFlood flood-opacity="0" result="BackgroundImageFix"/>
<feColorMatrix in="SourceAlpha" type="matrix" values="0 0 0 0 0 0 0 0 0 0 0 0 0 0 0 0 0 0 127 0" result="hardAlpha"/>
<feOffset dy="0.824642"/>
<feGaussianBlur stdDeviation="0.412321"/>
<feComposite in2="hardAlpha" operator="out"/>
<feColorMatrix type="matrix" values="0 0 0 0 0 0 0 0 0 0 0 0 0 0 0 0 0 0 0.25 0"/>
<feBlend mode="normal" in2="BackgroundImageFix" result="effect1_dropShadow_0_56"/>
<feBlend mode="normal" in="SourceGraphic" in2="effect1_dropShadow_0_56" result="shape"/>
</filter>
<filter id="filter3_d_0_56" x="68.1395" y="58.4672" width="7.43589" height="10.1947" filterUnits="userSpaceOnUse" color-interpolation-filters="sRGB">
<feFlood flood-opacity="0" result="BackgroundImageFix"/>
<feColorMatrix in="SourceAlpha" type="matrix" values="0 0 0 0 0 0 0 0 0 0 0 0 0 0 0 0 0 0 127 0" result="hardAlpha"/>
<feOffset dy="0.824642"/>
<feGaussianBlur stdDeviation="0.412321"/>
<feComposite in2="hardAlpha" operator="out"/>
<feColorMatrix type="matrix" values="0 0 0 0 0 0 0 0 0 0 0 0 0 0 0 0 0 0 0.25 0"/>
<feBlend mode="normal" in2="BackgroundImageFix" result="effect1_dropShadow_0_56"/>
<feBlend mode="normal" in="SourceGraphic" in2="effect1_dropShadow_0_56" result="shape"/>
</filter>
<filter id="filter4_d_0_56" x="61.5178" y="55.1553" width="7.43589" height="10.1947" filterUnits="userSpaceOnUse" color-interpolation-filters="sRGB">
<feFlood flood-opacity="0" result="BackgroundImageFix"/>
<feColorMatrix in="SourceAlpha" type="matrix" values="0 0 0 0 0 0 0 0 0 0 0 0 0 0 0 0 0 0 127 0" result="hardAlpha"/>
<feOffset dy="0.824642"/>
<feGaussianBlur stdDeviation="0.412321"/>
<feComposite in2="hardAlpha" operator="out"/>
<feColorMatrix type="matrix" values="0 0 0 0 0 0 0 0 0 0 0 0 0 0 0 0 0 0 0.25 0"/>
<feBlend mode="normal" in2="BackgroundImageFix" result="effect1_dropShadow_0_56"/>
<feBlend mode="normal" in="SourceGraphic" in2="effect1_dropShadow_0_56" result="shape"/>
</filter>
<filter id="filter5_d_0_56" x="62.8973" y="62.3267" width="7.43589" height="10.1947" filterUnits="userSpaceOnUse" color-interpolation-filters="sRGB">
<feFlood flood-opacity="0" result="BackgroundImageFix"/>
<feColorMatrix in="SourceAlpha" type="matrix" values="0 0 0 0 0 0 0 0 0 0 0 0 0 0 0 0 0 0 127 0" result="hardAlpha"/>
<feOffset dy="0.824642"/>
<feGaussianBlur stdDeviation="0.412321"/>
<feComposite in2="hardAlpha" operator="out"/>
<feColorMatrix type="matrix" values="0 0 0 0 0 0 0 0 0 0 0 0 0 0 0 0 0 0 0.25 0"/>
<feBlend mode="normal" in2="BackgroundImageFix" result="effect1_dropShadow_0_56"/>
<feBlend mode="normal" in="SourceGraphic" in2="effect1_dropShadow_0_56" result="shape"/>
</filter>
<filter id="filter6_d_0_56" x="70.3453" y="64.2595" width="7.43589" height="10.1947" filterUnits="userSpaceOnUse" color-interpolation-filters="sRGB">
<feFlood flood-opacity="0" result="BackgroundImageFix"/>
<feColorMatrix in="SourceAlpha" type="matrix" values="0 0 0 0 0 0 0 0 0 0 0 0 0 0 0 0 0 0 127 0" result="hardAlpha"/>
<feOffset dy="0.824642"/>
<feGaussianBlur stdDeviation="0.412321"/>
<feComposite in2="hardAlpha" operator="out"/>
<feColorMatrix type="matrix" values="0 0 0 0 0 0 0 0 0 0 0 0 0 0 0 0 0 0 0.25 0"/>
<feBlend mode="normal" in2="BackgroundImageFix" result="effect1_dropShadow_0_56"/>
<feBlend mode="normal" in="SourceGraphic" in2="effect1_dropShadow_0_56" result="shape"/>
</filter>
<filter id="filter7_d_0_56" x="68.6889" y="51.8456" width="7.43589" height="10.1947" filterUnits="userSpaceOnUse" color-interpolation-filters="sRGB">
<feFlood flood-opacity="0" result="BackgroundImageFix"/>
<feColorMatrix in="SourceAlpha" type="matrix" values="0 0 0 0 0 0 0 0 0 0 0 0 0 0 0 0 0 0 127 0" result="hardAlpha"/>
<feOffset dy="0.824642"/>
<feGaussianBlur stdDeviation="0.412321"/>
<feComposite in2="hardAlpha" operator="out"/>
<feColorMatrix type="matrix" values="0 0 0 0 0 0 0 0 0 0 0 0 0 0 0 0 0 0 0.25 0"/>
<feBlend mode="normal" in2="BackgroundImageFix" result="effect1_dropShadow_0_56"/>
<feBlend mode="normal" in="SourceGraphic" in2="effect1_dropShadow_0_56" result="shape"/>
</filter>
<filter id="filter8_d_0_56" x="74.4831" y="58.4653" width="7.43589" height="10.1947" filterUnits="userSpaceOnUse" color-interpolation-filters="sRGB">
<feFlood flood-opacity="0" result="BackgroundImageFix"/>
<feColorMatrix in="SourceAlpha" type="matrix" values="0 0 0 0 0 0 0 0 0 0 0 0 0 0 0 0 0 0 127 0" result="hardAlpha"/>
<feOffset dy="0.824642"/>
<feGaussianBlur stdDeviation="0.412321"/>
<feComposite in2="hardAlpha" operator="out"/>
<feColorMatrix type="matrix" values="0 0 0 0 0 0 0 0 0 0 0 0 0 0 0 0 0 0 0.25 0"/>
<feBlend mode="normal" in2="BackgroundImageFix" result="effect1_dropShadow_0_56"/>
<feBlend mode="normal" in="SourceGraphic" in2="effect1_dropShadow_0_56" result="shape"/>
</filter>
<filter id="filter9_d_0_56" x="68.1395" y="58.4672" width="7.43589" height="10.1947" filterUnits="userSpaceOnUse" color-interpolation-filters="sRGB">
<feFlood flood-opacity="0" result="BackgroundImageFix"/>
<feColorMatrix in="SourceAlpha" type="matrix" values="0 0 0 0 0 0 0 0 0 0 0 0 0 0 0 0 0 0 127 0" result="hardAlpha"/>
<feOffset dy="0.824642"/>
<feGaussianBlur stdDeviation="0.412321"/>
<feComposite in2="hardAlpha" operator="out"/>
<feColorMatrix type="matrix" values="0 0 0 0 0 0 0 0 0 0 0 0 0 0 0 0 0 0 0.25 0"/>
<feBlend mode="normal" in2="BackgroundImageFix" result="effect1_dropShadow_0_56"/>
<feBlend mode="normal" in="SourceGraphic" in2="effect1_dropShadow_0_56" result="shape"/>
</filter>
<filter id="filter10_d_0_56" x="61.5178" y="55.1553" width="7.43589" height="10.1947" filterUnits="userSpaceOnUse" color-interpolation-filters="sRGB">
<feFlood flood-opacity="0" result="BackgroundImageFix"/>
<feColorMatrix in="SourceAlpha" type="matrix" values="0 0 0 0 0 0 0 0 0 0 0 0 0 0 0 0 0 0 127 0" result="hardAlpha"/>
<feOffset dy="0.824642"/>
<feGaussianBlur stdDeviation="0.412321"/>
<feComposite in2="hardAlpha" operator="out"/>
<feColorMatrix type="matrix" values="0 0 0 0 0 0 0 0 0 0 0 0 0 0 0 0 0 0 0.25 0"/>
<feBlend mode="normal" in2="BackgroundImageFix" result="effect1_dropShadow_0_56"/>
<feBlend mode="normal" in="SourceGraphic" in2="effect1_dropShadow_0_56" result="shape"/>
</filter>
<filter id="filter11_d_0_56" x="62.8973" y="62.3267" width="7.43589" height="10.1947" filterUnits="userSpaceOnUse" color-interpolation-filters="sRGB">
<feFlood flood-opacity="0" result="BackgroundImageFix"/>
<feColorMatrix in="SourceAlpha" type="matrix" values="0 0 0 0 0 0 0 0 0 0 0 0 0 0 0 0 0 0 127 0" result="hardAlpha"/>
<feOffset dy="0.824642"/>
<feGaussianBlur stdDeviation="0.412321"/>
<feComposite in2="hardAlpha" operator="out"/>
<feColorMatrix type="matrix" values="0 0 0 0 0 0 0 0 0 0 0 0 0 0 0 0 0 0 0.25 0"/>
<feBlend mode="normal" in2="BackgroundImageFix" result="effect1_dropShadow_0_56"/>
<feBlend mode="normal" in="SourceGraphic" in2="effect1_dropShadow_0_56" result="shape"/>
</filter>
<filter id="filter12_d_0_56" x="70.3453" y="64.2595" width="7.43589" height="10.1947" filterUnits="userSpaceOnUse" color-interpolation-filters="sRGB">
<feFlood flood-opacity="0" result="BackgroundImageFix"/>
<feColorMatrix in="SourceAlpha" type="matrix" values="0 0 0 0 0 0 0 0 0 0 0 0 0 0 0 0 0 0 127 0" result="hardAlpha"/>
<feOffset dy="0.824642"/>
<feGaussianBlur stdDeviation="0.412321"/>
<feComposite in2="hardAlpha" operator="out"/>
<feColorMatrix type="matrix" values="0 0 0 0 0 0 0 0 0 0 0 0 0 0 0 0 0 0 0.25 0"/>
<feBlend mode="normal" in2="BackgroundImageFix" result="effect1_dropShadow_0_56"/>
<feBlend mode="normal" in="SourceGraphic" in2="effect1_dropShadow_0_56" result="shape"/>
</filter>
<linearGradient id="paint0_linear_0_56" x1="101.095" y1="54.4619" x2="7.58442" y2="73.6331" gradientUnits="userSpaceOnUse">
<stop stop-color="#E8A4A4"/>
<stop offset="1" stop-color="white"/>
</linearGradient>
<linearGradient id="paint1_linear_0_56" x1="101.095" y1="54.4619" x2="7.58442" y2="73.6331" gradientUnits="userSpaceOnUse">
<stop stop-color="#E8A4A4"/>
<stop offset="1" stop-color="white"/>
</linearGradient>
<linearGradient id="paint2_linear_0_56" x1="25.652" y1="34.4669" x2="122.425" y2="104.107" gradientUnits="userSpaceOnUse">
<stop stop-color="#E8A4A4"/>
<stop offset="1" stop-color="white"/>
</linearGradient>
<linearGradient id="paint3_linear_0_56" x1="25.652" y1="34.4669" x2="122.425" y2="104.107" gradientUnits="userSpaceOnUse">
<stop stop-color="#E8A4A4"/>
<stop offset="1" stop-color="white"/>
</linearGradient>
<linearGradient id="paint4_linear_0_56" x1="44.9603" y1="2.74182" x2="77.5098" y2="109.907" gradientUnits="userSpaceOnUse">
<stop stop-color="white"/>
<stop offset="1" stop-color="#E8A4A4"/>
</linearGradient>
<linearGradient id="paint5_linear_0_56" x1="44.9603" y1="2.74182" x2="77.5098" y2="109.907" gradientUnits="userSpaceOnUse">
<stop stop-color="white"/>
<stop offset="1" stop-color="#E8A4A4"/>
</linearGradient>
<linearGradient id="paint6_linear_0_56" x1="125.366" y1="30.7416" x2="25.0972" y2="103.013" gradientUnits="userSpaceOnUse">
<stop stop-color="white"/>
<stop offset="1" stop-color="#E8A4A4"/>
</linearGradient>
<linearGradient id="paint7_linear_0_56" x1="125.366" y1="30.7416" x2="25.0972" y2="103.013" gradientUnits="userSpaceOnUse">
<stop stop-color="white"/>
<stop offset="1" stop-color="#E8A4A4"/>
</linearGradient>
<linearGradient id="paint8_linear_0_56" x1="72.4083" y1="19.1005" x2="59.0499" y2="129.46" gradientUnits="userSpaceOnUse">
<stop stop-color="#E8A4A4"/>
<stop offset="1" stop-color="white"/>
</linearGradient>
<linearGradient id="paint9_linear_0_56" x1="72.4083" y1="19.1005" x2="59.0499" y2="129.46" gradientUnits="userSpaceOnUse">
<stop stop-color="#E8A4A4"/>
<stop offset="1" stop-color="white"/>
</linearGradient>
<linearGradient id="paint10_linear_0_56" x1="72.4066" y1="52.6702" x2="72.4066" y2="59.5663" gradientUnits="userSpaceOnUse">
<stop stop-color="#FFE668"/>
<stop offset="1" stop-color="#A7D98B"/>
</linearGradient>
<radialGradient id="paint11_radial_0_56" cx="0" cy="0" r="1" gradientUnits="userSpaceOnUse" gradientTransform="translate(76.0729 51.5669) rotate(90) scale(1.93091 3.58597)">
<stop offset="0.461538" stop-color="#FFE668"/>
<stop offset="1" stop-color="#FFC400"/>
</radialGradient>
<radialGradient id="paint12_radial_0_56" cx="0" cy="0" r="1" gradientUnits="userSpaceOnUse" gradientTransform="translate(76.0729 51.5669) rotate(90) scale(1.93091 3.58597)">
<stop offset="0.461538" stop-color="#FFE668"/>
<stop offset="1" stop-color="#FFC400"/>
</radialGradient>
<linearGradient id="paint13_linear_0_56" x1="78.2008" y1="59.2899" x2="78.2008" y2="66.186" gradientUnits="userSpaceOnUse">
<stop stop-color="#FFE668"/>
<stop offset="1" stop-color="#A7D98B"/>
</linearGradient>
<radialGradient id="paint14_radial_0_56" cx="0" cy="0" r="1" gradientUnits="userSpaceOnUse" gradientTransform="translate(81.8671 58.1866) rotate(90) scale(1.93091 3.58597)">
<stop offset="0.461538" stop-color="#FFE668"/>
<stop offset="1" stop-color="#FFC400"/>
</radialGradient>
<radialGradient id="paint15_radial_0_56" cx="0" cy="0" r="1" gradientUnits="userSpaceOnUse" gradientTransform="translate(81.8671 58.1866) rotate(90) scale(1.93091 3.58597)">
<stop offset="0.461538" stop-color="#FFE668"/>
<stop offset="1" stop-color="#FFC400"/>
</radialGradient>
<linearGradient id="paint16_linear_0_56" x1="71.8573" y1="59.2919" x2="71.8573" y2="66.188" gradientUnits="userSpaceOnUse">
<stop stop-color="#FFE668"/>
<stop offset="1" stop-color="#A7D98B"/>
</linearGradient>
<radialGradient id="paint17_radial_0_56" cx="0" cy="0" r="1" gradientUnits="userSpaceOnUse" gradientTransform="translate(75.5235 58.1886) rotate(90) scale(1.93091 3.58597)">
<stop offset="0.461538" stop-color="#FFE668"/>
<stop offset="1" stop-color="#FFC400"/>
</radialGradient>
<radialGradient id="paint18_radial_0_56" cx="0" cy="0" r="1" gradientUnits="userSpaceOnUse" gradientTransform="translate(75.5235 58.1886) rotate(90) scale(1.93091 3.58597)">
<stop offset="0.461538" stop-color="#FFE668"/>
<stop offset="1" stop-color="#FFC400"/>
</radialGradient>
<linearGradient id="paint19_linear_0_56" x1="65.2356" y1="55.9799" x2="65.2356" y2="62.876" gradientUnits="userSpaceOnUse">
<stop stop-color="#FFE668"/>
<stop offset="1" stop-color="#A7D98B"/>
</linearGradient>
<radialGradient id="paint20_radial_0_56" cx="0" cy="0" r="1" gradientUnits="userSpaceOnUse" gradientTransform="translate(68.9034 54.8766) rotate(90) scale(1.93091 3.58597)">
<stop offset="0.461538" stop-color="#FFE668"/>
<stop offset="1" stop-color="#FFC400"/>
</radialGradient>
<radialGradient id="paint21_radial_0_56" cx="0" cy="0" r="1" gradientUnits="userSpaceOnUse" gradientTransform="translate(68.9034 54.8766) rotate(90) scale(1.93091 3.58597)">
<stop offset="0.461538" stop-color="#FFE668"/>
<stop offset="1" stop-color="#FFC400"/>
</radialGradient>
<linearGradient id="paint22_linear_0_56" x1="66.6151" y1="63.1513" x2="66.6151" y2="70.0474" gradientUnits="userSpaceOnUse">
<stop stop-color="#FFE668"/>
<stop offset="1" stop-color="#A7D98B"/>
</linearGradient>
<radialGradient id="paint23_radial_0_56" cx="0" cy="0" r="1" gradientUnits="userSpaceOnUse" gradientTransform="translate(70.2821 62.048) rotate(90) scale(1.93091 3.58597)">
<stop offset="0.461538" stop-color="#FFE668"/>
<stop offset="1" stop-color="#FFC400"/>
</radialGradient>
<radialGradient id="paint24_radial_0_56" cx="0" cy="0" r="1" gradientUnits="userSpaceOnUse" gradientTransform="translate(70.2821 62.048) rotate(90) scale(1.93091 3.58597)">
<stop offset="0.461538" stop-color="#FFE668"/>
<stop offset="1" stop-color="#FFC400"/>
</radialGradient>
<linearGradient id="paint25_linear_0_56" x1="74.0631" y1="65.0842" x2="74.0631" y2="71.9803" gradientUnits="userSpaceOnUse">
<stop stop-color="#FFE668"/>
<stop offset="1" stop-color="#A7D98B"/>
</linearGradient>
<radialGradient id="paint26_radial_0_56" cx="0" cy="0" r="1" gradientUnits="userSpaceOnUse" gradientTransform="translate(77.7293 63.9809) rotate(90) scale(1.93091 3.58597)">
<stop offset="0.461538" stop-color="#FFE668"/>
<stop offset="1" stop-color="#FFC400"/>
</radialGradient>
<radialGradient id="paint27_radial_0_56" cx="0" cy="0" r="1" gradientUnits="userSpaceOnUse" gradientTransform="translate(77.7293 63.9809) rotate(90) scale(1.93091 3.58597)">
<stop offset="0.461538" stop-color="#FFE668"/>
<stop offset="1" stop-color="#FFC400"/>
</radialGradient>
<linearGradient id="paint28_linear_0_56" x1="101.095" y1="54.4619" x2="7.58442" y2="73.6331" gradientUnits="userSpaceOnUse">
<stop stop-color="#FFC400"/>
<stop offset="1" stop-color="white"/>
</linearGradient>
<linearGradient id="paint29_linear_0_56" x1="101.095" y1="54.4619" x2="7.58442" y2="73.6331" gradientUnits="userSpaceOnUse">
<stop stop-color="#FFC400"/>
<stop offset="1" stop-color="white"/>
</linearGradient>
<linearGradient id="paint30_linear_0_56" x1="25.652" y1="34.4669" x2="122.425" y2="104.107" gradientUnits="userSpaceOnUse">
<stop stop-color="#FFC400"/>
<stop offset="1" stop-color="white"/>
</linearGradient>
<linearGradient id="paint31_linear_0_56" x1="25.652" y1="34.4669" x2="122.425" y2="104.107" gradientUnits="userSpaceOnUse">
<stop stop-color="#FFC400"/>
<stop offset="1" stop-color="white"/>
</linearGradient>
<linearGradient id="paint32_linear_0_56" x1="44.9603" y1="2.74182" x2="77.5098" y2="109.907" gradientUnits="userSpaceOnUse">
<stop stop-color="white"/>
<stop offset="1" stop-color="#FFC400"/>
</linearGradient>
<linearGradient id="paint33_linear_0_56" x1="44.9603" y1="2.74182" x2="77.5098" y2="109.907" gradientUnits="userSpaceOnUse">
<stop stop-color="white"/>
<stop offset="1" stop-color="#FFC400"/>
</linearGradient>
<linearGradient id="paint34_linear_0_56" x1="125.366" y1="30.7416" x2="25.0972" y2="103.013" gradientUnits="userSpaceOnUse">
<stop stop-color="white"/>
<stop offset="1" stop-color="#FFC400"/>
</linearGradient>
<linearGradient id="paint35_linear_0_56" x1="125.366" y1="30.7416" x2="25.0972" y2="103.013" gradientUnits="userSpaceOnUse">
<stop stop-color="white"/>
<stop offset="1" stop-color="#FFC400"/>
</linearGradient>
<linearGradient id="paint36_linear_0_56" x1="72.4083" y1="19.1005" x2="59.0499" y2="129.46" gradientUnits="userSpaceOnUse">
<stop stop-color="#FFC400"/>
<stop offset="1" stop-color="white"/>
</linearGradient>
<linearGradient id="paint37_linear_0_56" x1="72.4083" y1="19.1005" x2="59.0499" y2="129.46" gradientUnits="userSpaceOnUse">
<stop stop-color="#FFC400"/>
<stop offset="1" stop-color="white"/>
</linearGradient>
<linearGradient id="paint38_linear_0_56" x1="72.4066" y1="52.6702" x2="72.4066" y2="59.5663" gradientUnits="userSpaceOnUse">
<stop stop-color="#FFE668"/>
<stop offset="1" stop-color="#A7D98B"/>
</linearGradient>
<radialGradient id="paint39_radial_0_56" cx="0" cy="0" r="1" gradientUnits="userSpaceOnUse" gradientTransform="translate(76.0729 51.5669) rotate(90) scale(1.93091 3.58597)">
<stop offset="0.461538" stop-color="#FFE668"/>
<stop offset="1" stop-color="#FFC400"/>
</radialGradient>
<radialGradient id="paint40_radial_0_56" cx="0" cy="0" r="1" gradientUnits="userSpaceOnUse" gradientTransform="translate(76.0729 51.5669) rotate(90) scale(1.93091 3.58597)">
<stop offset="0.461538" stop-color="#FFE668"/>
<stop offset="1" stop-color="#FFC400"/>
</radialGradient>
<linearGradient id="paint41_linear_0_56" x1="78.2008" y1="59.2899" x2="78.2008" y2="66.186" gradientUnits="userSpaceOnUse">
<stop stop-color="#FFE668"/>
<stop offset="1" stop-color="#A7D98B"/>
</linearGradient>
<radialGradient id="paint42_radial_0_56" cx="0" cy="0" r="1" gradientUnits="userSpaceOnUse" gradientTransform="translate(81.8671 58.1866) rotate(90) scale(1.93091 3.58597)">
<stop offset="0.461538" stop-color="#FFE668"/>
<stop offset="1" stop-color="#FFC400"/>
</radialGradient>
<radialGradient id="paint43_radial_0_56" cx="0" cy="0" r="1" gradientUnits="userSpaceOnUse" gradientTransform="translate(81.8671 58.1866) rotate(90) scale(1.93091 3.58597)">
<stop offset="0.461538" stop-color="#FFE668"/>
<stop offset="1" stop-color="#FFC400"/>
</radialGradient>
<linearGradient id="paint44_linear_0_56" x1="71.8573" y1="59.2919" x2="71.8573" y2="66.188" gradientUnits="userSpaceOnUse">
<stop stop-color="#FFE668"/>
<stop offset="1" stop-color="#A7D98B"/>
</linearGradient>
<radialGradient id="paint45_radial_0_56" cx="0" cy="0" r="1" gradientUnits="userSpaceOnUse" gradientTransform="translate(75.5235 58.1886) rotate(90) scale(1.93091 3.58597)">
<stop offset="0.461538" stop-color="#FFE668"/>
<stop offset="1" stop-color="#FFC400"/>
</radialGradient>
<radialGradient id="paint46_radial_0_56" cx="0" cy="0" r="1" gradientUnits="userSpaceOnUse" gradientTransform="translate(75.5235 58.1886) rotate(90) scale(1.93091 3.58597)">
<stop offset="0.461538" stop-color="#FFE668"/>
<stop offset="1" stop-color="#FFC400"/>
</radialGradient>
<linearGradient id="paint47_linear_0_56" x1="65.2356" y1="55.9799" x2="65.2356" y2="62.876" gradientUnits="userSpaceOnUse">
<stop stop-color="#FFE668"/>
<stop offset="1" stop-color="#A7D98B"/>
</linearGradient>
<radialGradient id="paint48_radial_0_56" cx="0" cy="0" r="1" gradientUnits="userSpaceOnUse" gradientTransform="translate(68.9034 54.8766) rotate(90) scale(1.93091 3.58597)">
<stop offset="0.461538" stop-color="#FFE668"/>
<stop offset="1" stop-color="#FFC400"/>
</radialGradient>
<radialGradient id="paint49_radial_0_56" cx="0" cy="0" r="1" gradientUnits="userSpaceOnUse" gradientTransform="translate(68.9034 54.8766) rotate(90) scale(1.93091 3.58597)">
<stop offset="0.461538" stop-color="#FFE668"/>
<stop offset="1" stop-color="#FFC400"/>
</radialGradient>
<linearGradient id="paint50_linear_0_56" x1="66.6151" y1="63.1513" x2="66.6151" y2="70.0474" gradientUnits="userSpaceOnUse">
<stop stop-color="#FFE668"/>
<stop offset="1" stop-color="#A7D98B"/>
</linearGradient>
<radialGradient id="paint51_radial_0_56" cx="0" cy="0" r="1" gradientUnits="userSpaceOnUse" gradientTransform="translate(70.2821 62.048) rotate(90) scale(1.93091 3.58597)">
<stop offset="0.461538" stop-color="#FFE668"/>
<stop offset="1" stop-color="#FFC400"/>
</radialGradient>
<radialGradient id="paint52_radial_0_56" cx="0" cy="0" r="1" gradientUnits="userSpaceOnUse" gradientTransform="translate(70.2821 62.048) rotate(90) scale(1.93091 3.58597)">
<stop offset="0.461538" stop-color="#FFE668"/>
<stop offset="1" stop-color="#FFC400"/>
</radialGradient>
<linearGradient id="paint53_linear_0_56" x1="74.0631" y1="65.0842" x2="74.0631" y2="71.9803" gradientUnits="userSpaceOnUse">
<stop stop-color="#FFE668"/>
<stop offset="1" stop-color="#A7D98B"/>
</linearGradient>
<radialGradient id="paint54_radial_0_56" cx="0" cy="0" r="1" gradientUnits="userSpaceOnUse" gradientTransform="translate(77.7293 63.9809) rotate(90) scale(1.93091 3.58597)">
<stop offset="0.461538" stop-color="#FFE668"/>
<stop offset="1" stop-color="#FFC400"/>
</radialGradient>
<radialGradient id="paint55_radial_0_56" cx="0" cy="0" r="1" gradientUnits="userSpaceOnUse" gradientTransform="translate(77.7293 63.9809) rotate(90) scale(1.93091 3.58597)">
<stop offset="0.461538" stop-color="#FFE668"/>
<stop offset="1" stop-color="#FFC400"/>
</radialGradient>
</defs>
</svg>
